<svg xmlns="http://www.w3.org/2000/svg" width="20" height="20" viewBox="0 0 20 20" fill="none">
  <path d="M13.2001 10.7199V14.0799C13.2001 16.8799 12.0801 17.9999 9.28009 17.9999H5.92005C3.12001 17.9999 2 16.8799 2 14.0799V10.7199C2 7.91982 3.12001 6.7998 5.92005 6.7998H9.28009C12.0801 6.7998 13.2001 7.91982 13.2001 10.7199Z" fill="currentColor"/>
  <path d="M14.0807 2H10.7206C8.25415 2 7.09738 2.87528 6.85639 4.99125C6.80597 5.43392 7.17259 5.80004 7.61813 5.80004H9.28062C12.6407 5.80004 14.2007 7.36006 14.2007 10.7201V12.3826C14.2007 12.8281 14.5668 13.1948 15.0095 13.1443C17.1254 12.9033 18.0007 11.7466 18.0007 9.28009V5.92005C18.0007 3.12001 16.8807 2 14.0807 2Z" fill="currentColor"/>
</svg>