<svg xmlns="http://www.w3.org/2000/svg" width="20" height="20" viewBox="0 0 20 20" fill="none">
  <path d="M14.0812 2H10.7209C8.25426 2 7.0974 2.87535 6.85639 4.99147C6.80597 5.43418 7.17262 5.80034 7.61819 5.80034H9.28081C12.6411 5.80034 14.2012 7.36047 14.2012 10.7208V12.3834C14.2012 12.829 14.5674 13.1956 15.0101 13.1452C17.1262 12.9042 18.0016 11.7473 18.0016 9.28064V5.92035C18.0016 3.1201 16.8815 2 14.0812 2Z" fill="currentColor"/>
  <path d="M9.28064 6.7998H5.92035C3.1201 6.7998 2 7.9199 2 10.7202V14.0804C2 16.8807 3.1201 18.0008 5.92035 18.0008H9.28064C12.0809 18.0008 13.201 16.8807 13.201 14.0804V10.7202C13.201 7.9199 12.0809 6.7998 9.28064 6.7998ZM10.2327 11.3202L7.26447 14.2885C7.15246 14.4005 7.00844 14.4565 6.85643 14.4565C6.70442 14.4565 6.5604 14.4005 6.44839 14.2885L4.96026 12.8003C4.73624 12.5763 4.73624 12.2163 4.96026 11.9923C5.18428 11.7682 5.54431 11.7682 5.76833 11.9923L6.84843 13.0724L9.41666 10.5041C9.64068 10.2801 10.0007 10.2801 10.2247 10.5041C10.4487 10.7282 10.4567 11.0962 10.2327 11.3202Z" fill="currentColor"/>
</svg>